<?xml version="1.0" encoding="utf-8"?>
<!-- Generator: Adobe Illustrator 27.0.0, SVG Export Plug-In . SVG Version: 6.00 Build 0)  -->
<svg version="1.1" id="Layer_1" xmlns="http://www.w3.org/2000/svg" xmlns:xlink="http://www.w3.org/1999/xlink" x="0px" y="0px"
	 viewBox="0 0 180 180" style="enable-background:new 0 0 180 180;" xml:space="preserve">
<style type="text/css">
	.st0{fill:#FFFFFF;}
	.st1{fill:#0AA0DB;}
</style>
<rect class="st0" width="180" height="180"/>
<path class="st1" d="M94.34,4.5l81.15,81.15c2.48,2.48,2.48,6.5,0,8.98l-81.15,81.15c-2.48,2.48-6.5,2.48-8.98,0L4.21,94.63
	c-2.48-2.48-2.48-6.5,0-8.98L85.37,4.5C87.85,2.03,91.86,2.03,94.34,4.5z"/>
<path class="st0" d="M143.54,89.95c-0.02,3.26-0.33,6.59-0.92,10c-1.27,1.28-2.7,2.07-4.28,2.87c-3.65,1.27-7.13,1.27-10.62,0
	l-19.21-7.85c-0.8-3.02-3.53-5.25-6.8-5.25c-3.88,0-7.04,3.16-7.04,7.07c0,3.9,3.15,7.07,7.04,7.07c0.65,0,1.29-0.09,1.88-0.26
	c0.43-0.05,0.94-0.2,1.45-0.46l19.34,7.97c3.65,1.27,6.18,3.82,7.77,7.17c0.61,1.69,0.93,3.09,1.09,4.34
	c-9.48,13.38-24.66,22.42-42,23.59l-25.99-10.39l-1.76,5.17c-9.97-4.71-18.34-12.27-24.04-21.63c-0.01-0.01-0.02-0.03-0.03-0.05
	c-0.17-0.29-0.34-0.58-0.5-0.87c-4.17-7.3-6.52-14.96-7.27-23.05c-0.15-1.6-0.31-3.02-0.35-4.21c0-0.08-0.01-0.16-0.01-0.23
	c0-0.11,0-0.21,0-0.32c0-0.14,0-0.27,0-0.41c0-14.05,5.16-26.89,13.69-36.73c0.02-0.02,0.03-0.04,0.05-0.06
	c2.87-3.31,6.13-6.28,9.7-8.84c0.02-0.01,0.04-0.03,0.06-0.04c0,0,0,0,0.01,0c8.05-5.76,17.68-9.44,28.11-10.27
	c0.31-0.03,0.61-0.05,0.92-0.07c0.25-0.02,0.5-0.03,0.75-0.04c0.21-0.01,0.43-0.02,0.64-0.03c0.16-0.01,0.31-0.01,0.47-0.02
	c0.58-0.02,1.15-0.03,1.74-0.03c0.31,0,0.63,0,0.94,0.01c0.09,0,0.18,0,0.28,0c0.32,0.01,0.63,0.02,0.95,0.03
	c0.36,0.02,0.73,0.03,1.09,0.05c0.36,0.02,0.72,0.04,1.08,0.07c0.27,0.02,0.53,0.04,0.8,0.07c0.4,0.04,0.8,0.08,1.2,0.12
	c0.4,0.05,0.79,0.09,1.19,0.15c0.34,0.04,0.68,0.09,1.02,0.14c2.96,0.45,5.84,1.14,8.63,2.03l-0.5,1.34l-2.7,6.7l31.39,12.43
	c2.15,3,3.97,6.05,5.47,9.16c0.02,0.03,0.03,0.07,0.05,0.1C141.63,73.62,143.51,81.57,143.54,89.95z"/>
<g>
	<g>
		<path class="st1" d="M76.21,119.47c-0.22,0.48-0.41,0.97-0.55,1.46c-0.23-0.28-0.64-0.39-1.01-0.56
			c-6.15-2.87-12.26-5.86-18.49-8.56c-7.44-3.22-10.51-11.84-6.91-18.7c1.04-1.97,1.81-4.08,2.71-6.13c0.08,0,0.15,0,0.23-0.01
			c0.4,0.26,0.83,0.5,1.28,0.71c0.39,0.18,0.78,0.33,1.18,0.46c0.02,0.03,0.05,0.05,0.06,0.08c-0.93,2.04-1.83,4.09-2.78,6.12
			c-2.73,5.86-0.68,11.78,5.13,14.53c6.25,2.96,12.56,5.8,18.82,8.76c0.51,0.24,0.9,0.32,1.25,0.23
			C76.77,118.38,76.47,118.91,76.21,119.47z"/>
		
			<rect x="65.47" y="85.84" transform="matrix(0.9073 0.4205 -0.4205 0.9073 43.9548 -24.7736)" class="st1" width="25.39" height="2.91"/>
		<g>
			<circle class="st1" cx="98.7" cy="96.7" r="10.84"/>
			<circle class="st1" cx="98.7" cy="96.7" r="9.15"/>
			<circle class="st1" cx="98.7" cy="96.7" r="4.38"/>
		</g>
		<g>
			<circle class="st1" cx="58.01" cy="77.85" r="10.84"/>
			<circle class="st1" cx="58.01" cy="77.85" r="9.15"/>
			<circle class="st1" cx="58.01" cy="77.85" r="4.38"/>
		</g>
		<g>
			<circle class="st1" cx="86.04" cy="124.03" r="10.84"/>
			<circle class="st0" cx="86.04" cy="124.03" r="9.15"/>
			<circle class="st1" cx="86.04" cy="124.03" r="4.38"/>
		</g>
	</g>
	<g>
		<path class="st1" d="M101.53,64.83c0.22-0.48,0.48-0.94,0.76-1.37c-0.36,0-0.71-0.24-1.08-0.41c-6.17-2.84-12.4-5.56-18.48-8.58
			c-7.26-3.59-15.83-0.37-18.74,6.81c-0.83,2.07-1.94,4.02-2.93,6.03c0.05,0.06,0.09,0.12,0.14,0.18c0.46,0.14,0.92,0.31,1.37,0.52
			c0.39,0.18,0.76,0.38,1.12,0.6c0.03,0,0.07,0,0.11,0c0.96-2.03,1.94-4.04,2.88-6.08c2.71-5.87,8.55-8.14,14.41-5.48
			c6.3,2.86,12.55,5.84,18.85,8.69c0.51,0.23,0.82,0.48,0.99,0.8C101.06,65.97,101.27,65.39,101.53,64.83z"/>
		
			<rect x="65.55" y="85.66" transform="matrix(0.9073 0.4205 -0.4205 0.9073 43.8845 -24.8271)" class="st1" width="25.39" height="2.91"/>
		<g>
			<circle class="st1" cx="98.7" cy="96.7" r="10.84"/>
			<circle class="st0" cx="98.7" cy="96.7" r="9.15"/>
			<circle class="st1" cx="98.7" cy="96.7" r="4.38"/>
		</g>
		<g>
			<circle class="st1" cx="58.01" cy="77.85" r="10.84"/>
			<circle class="st0" cx="58.01" cy="77.85" r="9.15"/>
			<circle class="st1" cx="58.01" cy="77.85" r="4.38"/>
		</g>
		<g>
			<circle class="st1" cx="111.36" cy="69.38" r="10.84"/>
			<circle class="st0" cx="111.36" cy="69.38" r="9.15"/>
			<circle class="st1" cx="111.36" cy="69.38" r="4.38"/>
		</g>
	</g>
</g>
</svg>
