<?xml version="1.0" encoding="utf-8"?>
<!-- Generator: Adobe Illustrator 27.0.0, SVG Export Plug-In . SVG Version: 6.00 Build 0)  -->
<svg version="1.1" id="Layer_1" xmlns="http://www.w3.org/2000/svg" xmlns:xlink="http://www.w3.org/1999/xlink" x="0px" y="0px"
	 viewBox="0 0 512 512" style="enable-background:new 0 0 512 512;" xml:space="preserve">
<style type="text/css">
	.st0{fill:#0AA0DB;}
	.st1{fill:#FFFFFF;}
	.st2{fill:#172348;}
	.st3{fill:#18A2DC;}
</style>
<g>
	<path class="st0" d="M266.85,8.82l195.1,195.1c5.96,5.96,5.96,15.62,0,21.58l-195.1,195.1c-5.96,5.96-15.62,5.96-21.58,0
		L50.17,225.5c-5.96-5.96-5.96-15.62,0-21.58l195.1-195.1C251.23,2.86,260.89,2.86,266.85,8.82z"/>
	<path class="st1" d="M385.13,214.24c-0.06,7.84-0.8,15.84-2.21,24.04c-3.05,3.07-6.48,4.98-10.3,6.9c-8.76,3.06-17.15,3.06-25.54,0
		l-46.18-18.87c-1.91-7.27-8.5-12.62-16.34-12.62c-9.34,0-16.91,7.61-16.91,17c0,9.39,7.57,16.99,16.91,16.99
		c1.57,0,3.09-0.21,4.53-0.62c1.03-0.12,2.25-0.49,3.48-1.1l46.5,19.16c8.76,3.06,14.87,9.19,18.68,17.24
		c1.47,4.07,2.23,7.44,2.62,10.42c-22.78,32.16-59.29,53.9-100.98,56.71L196.9,324.5l-4.23,12.44c-23.98-11.32-44.08-29.49-57.78-52
		c-0.02-0.03-0.05-0.07-0.07-0.11c-0.41-0.7-0.81-1.4-1.2-2.1c-10.02-17.55-15.67-35.97-17.48-55.42
		c-0.35-3.85-0.74-7.26-0.83-10.13c-0.01-0.19-0.01-0.37-0.01-0.56c-0.01-0.25-0.01-0.51-0.01-0.76c-0.01-0.33-0.01-0.66-0.01-0.98
		c0-33.77,12.4-64.63,32.9-88.3c0.04-0.05,0.08-0.09,0.13-0.14c6.9-7.95,14.74-15.1,23.32-21.26c0.05-0.03,0.09-0.06,0.13-0.09
		c0.01,0,0.01-0.01,0.01-0.01c19.34-13.84,42.5-22.7,67.58-24.68c0.74-0.06,1.47-0.11,2.21-0.16c0.6-0.04,1.19-0.08,1.79-0.11
		c0.51-0.03,1.02-0.05,1.54-0.07c0.38-0.01,0.76-0.03,1.14-0.04c1.38-0.05,2.78-0.07,4.17-0.07c0.76,0,1.51,0.01,2.27,0.03
		c0.22-0.01,0.44,0,0.66,0.01c0.76,0.01,1.53,0.04,2.29,0.07c0.88,0.04,1.75,0.08,2.62,0.13c0.86,0.05,1.73,0.11,2.59,0.17
		c0.64,0.05,1.28,0.1,1.93,0.16c0.96,0.09,1.92,0.19,2.88,0.29c0.96,0.11,1.91,0.23,2.86,0.35c0.82,0.1,1.63,0.22,2.44,0.34
		c7.11,1.09,14.04,2.73,20.74,4.88l-1.21,3.22l-6.48,16.1l75.47,29.89c5.16,7.21,9.55,14.54,13.14,22.02
		c0.04,0.08,0.08,0.16,0.11,0.24C380.54,174.99,385.04,194.1,385.13,214.24z"/>
	<g>
		<g>
			<path class="st0" d="M223.25,285.22c-0.54,1.16-0.98,2.33-1.33,3.52c-0.56-0.68-1.55-0.94-2.43-1.34
				c-14.79-6.9-29.47-14.09-44.46-20.58c-17.87-7.74-25.28-28.47-16.62-44.97c2.5-4.74,4.36-9.81,6.52-14.74
				c0.18-0.01,0.36-0.01,0.55-0.01c0.97,0.63,2,1.2,3.08,1.7c0.93,0.43,1.88,0.8,2.83,1.12c0.05,0.06,0.11,0.13,0.15,0.2
				c-2.22,4.91-4.41,9.83-6.69,14.72c-6.56,14.09-1.65,28.32,12.34,34.94c15.03,7.12,30.2,13.95,45.23,21.06
				c1.22,0.58,2.16,0.76,3.01,0.56C224.61,282.58,223.88,283.86,223.25,285.22z"/>
			
				<rect x="197.42" y="204.37" transform="matrix(0.9073 0.4205 -0.4205 0.9073 108.5405 -76.5795)" class="st0" width="61.04" height="7"/>
			<g>
				<circle class="st0" cx="277.32" cy="230.48" r="26.05"/>
				<circle class="st0" cx="277.32" cy="230.48" r="22"/>
				<circle class="st0" cx="277.32" cy="230.48" r="10.54"/>
			</g>
			<g>
				<circle class="st0" cx="179.51" cy="185.15" r="26.05"/>
				<circle class="st0" cx="179.51" cy="185.15" r="22"/>
				<circle class="st0" cx="179.51" cy="185.15" r="10.54"/>
			</g>
			<g>
				<circle class="st0" cx="246.88" cy="296.17" r="26.05"/>
				<circle class="st1" cx="246.88" cy="296.17" r="22"/>
				<circle class="st0" cx="246.88" cy="296.17" r="10.54"/>
			</g>
		</g>
		<g>
			<path class="st0" d="M284.13,153.85c0.54-1.16,1.14-2.26,1.82-3.29c-0.88,0.01-1.72-0.58-2.6-0.99
				c-14.83-6.82-29.8-13.38-44.44-20.62c-17.46-8.64-38.06-0.89-45.05,16.38c-2.01,4.97-4.67,9.67-7.04,14.5
				c0.11,0.14,0.23,0.28,0.35,0.43c1.1,0.33,2.21,0.76,3.28,1.25c0.93,0.43,1.83,0.92,2.68,1.44c0.08,0,0.17,0,0.25-0.01
				c2.31-4.87,4.65-9.72,6.91-14.62c6.51-14.11,20.55-19.56,34.63-13.17c15.14,6.87,30.17,14.03,45.31,20.9
				c1.23,0.56,1.97,1.15,2.38,1.93C283,156.58,283.51,155.2,284.13,153.85z"/>
			
				<rect x="197.63" y="203.92" transform="matrix(0.9073 0.4205 -0.4205 0.9073 108.3714 -76.7084)" class="st0" width="61.04" height="7"/>
			<g>
				<circle class="st0" cx="277.32" cy="230.48" r="26.05"/>
				<circle class="st1" cx="277.32" cy="230.48" r="22"/>
				<circle class="st0" cx="277.32" cy="230.48" r="10.54"/>
			</g>
			<g>
				<circle class="st0" cx="179.51" cy="185.15" r="26.05"/>
				<circle class="st1" cx="179.51" cy="185.15" r="22"/>
				<circle class="st0" cx="179.51" cy="185.15" r="10.54"/>
			</g>
			<g>
				<circle class="st0" cx="307.77" cy="164.8" r="26.05"/>
				<circle class="st1" cx="307.77" cy="164.8" r="22"/>
				<circle class="st0" cx="307.77" cy="164.8" r="10.54"/>
			</g>
		</g>
	</g>
</g>
<g>
	<path class="st2" d="M147.38,426.09c1.48,1.47,3.46,2.35,4.1,4.72c1.11,4.13-0.15,8.08-3.48,9.69c-3.53,1.71-8.72,0.52-10.53-2.41
		c-2.17-3.52-1.3-8.31,2.03-10.91c0.45-0.35,1.21-0.33,1.32-1.1C143,426.09,145.19,426.09,147.38,426.09z"/>
	<g>
		<path class="st2" d="M81.04,509.35c-0.64-1.42-2.17-1.04-3.24-1.46c-7.5-2.95-9.26-9.24-4.23-15.56c0.39-0.49,0.78-0.96,1.36-1.67
			c-2.28-2.31-4.46-4.75-2.62-8.38c1.53-3.02,4.48-4.76,6.67-7.73c-4.52-3.2-6.91-7.64-6.82-13.26c0.13-8.42,5.39-14.48,13.77-15.74
			c2.16-0.32,4.36-0.43,6.54-0.45c3.91-0.03,7.75,0.87,11.69,0.73c3.74-0.13,7.49-0.03,11.28-0.03c1.43,2.32,0.42,4.63,0.83,6.73
			c-2.46,1.23-5.03,0.3-7.17,1.76c2.98,5.63,3.77,11.43-0.39,16.66c-5.7,7.17-13.71,6.99-21.87,5.96c-1.48,0.8-1.67,2.49-2.94,3.94
			c7.11,1.11,13.93,0.79,20.59,2.03c7.28,1.36,9.98,3.48,10.99,8.94c1.09,5.86-1.62,11.28-7.07,14.56
			c-2.41,1.45-5.27,1.57-7.66,2.96C94.18,509.35,87.61,509.35,81.04,509.35z M91.92,468.32c5.16,0.08,8.38-2.74,8.34-7.31
			c-0.03-4.57-3.03-7.5-7.71-7.53c-4.99-0.04-8.12,2.8-8.27,7.51C84.14,465.63,86.85,468.24,91.92,468.32z M91.48,501.69
			c2.59,0.16,5.06-0.2,7.49-0.85c2.12-0.56,3.8-1.58,3.74-4.09c-0.06-2.66-2.35-2.78-4.06-2.98c-4.18-0.49-8.43-0.42-12.6-1
			c-3.08-0.44-4.43,0.98-4.96,3.54c-0.56,2.7,1.13,3.99,3.51,4.62C86.88,501.52,89.18,501.9,91.48,501.69z"/>
		<path class="st3" d="M441.4,489.65c-4.19,0-8.37,0-12.78,0c-0.74-5.21-0.24-10.17-0.35-15.11c-0.08-3.74,0.07-7.49-0.04-11.23
			c-0.14-4.64-2.08-6.75-5.93-6.74c-4.79,0.02-7.16,2.3-7.17,6.98c-0.02,8.54,0,17.09,0,25.89c-4.4,0-8.37,0-12.31,0
			c-0.81-3.91-0.87-37.16-0.05-41.87c4.11,0.41,9.02-2.42,11.62,3.41c1.54-0.29,2.53-1.34,3.7-2.06
			c9.12-5.59,21.52-0.54,22.43,10.14c0.06,0.66,0.25,1.2,0.88,1.5C441.4,470.25,441.4,479.95,441.4,489.65z"/>
		<path class="st3" d="M346.28,447.44c0,14.29,0,27.97,0,42.02c-4.17,0.41-8.15,0.31-12.57,0.04c0-10.99,0-21.86,0-33.12
			c-5.94,0-11.46,0-17.59,0c-0.55,7.73-0.52,15.52-0.08,22.67c2.68,2.2,4.65,0.52,6.69,0.66c1.7,2.02,3.22,4.15,4.3,6.55
			c-4.73,4.72-13.63,5.68-18.94,2.14c-3.28-2.18-4.7-5.3-4.72-9.14c-0.03-5.94-0.01-11.87-0.06-17.81c-0.01-1.54,0.3-3.12-0.36-4.6
			c-6.23-2.07-6.23-2.07-5.55-7.69c1.82-1.41,4.37-1.09,6.6-2.3c0.62-2.4,1.54-4.91,1.88-7.49c0.44-3.32,2.03-4.69,5.31-4.23
			c1.36,0.19,2.8-0.31,4.49,0.67c0,3.48,0,7.17,0,11.62c5.29,0,10.22,0,15.14,0C335.79,447.44,340.78,447.44,346.28,447.44z"/>
		<path class="st3" d="M221.85,435.77c-0.48,1.07-0.77,1.78-1.11,2.47c-3.44,6.94-3.46,6.99-10.66,3.69
			c-2.99-1.37-6.06-1.45-9.16-1.03c-2.37,0.32-3.94,1.87-4.41,4.24c-0.45,2.32,0.12,4.25,2.39,5.56c1.64,0.95,3.37,1.62,5.12,2.24
			c2.35,0.83,4.77,1.45,7.09,2.34c6.2,2.36,10.94,6.11,11.59,13.28c0.7,7.8-2.07,14.16-8.58,18.55c-9.05,6.11-25.21,3.67-32.7-4.84
			c0.24-0.49,0.49-1.06,0.79-1.59c4.11-7.24,4.53-7.39,11.76-3.49c2.97,1.6,6.03,2.45,9.42,2.12c3.1-0.3,5.35-1.64,6.13-4.81
			c0.79-3.2-0.39-5.64-3.6-7.31c-2.78-1.46-5.94-1.86-8.85-2.93c-4.53-1.66-9.13-3.23-11.67-7.93c-6.21-11.47,1.13-25,14.66-26.62
			C207.92,428.79,215.2,430.59,221.85,435.77z"/>
		<path class="st3" d="M352.98,468.57c-0.41-14.03,8.99-21.85,21.86-21.96c12.69-0.11,21.52,9.21,21.43,22.17
			c-0.08,12.95-8.94,21.77-21.86,21.73C363.3,490.47,352.55,483.32,352.98,468.57z M366.09,468.53c0.09,0,0.18,0.01,0.28,0.01
			c0,1.71-0.2,3.45,0.04,5.13c0.63,4.35,3.79,7.27,7.75,7.39c4.32,0.14,6.94-2.07,8.21-6.7c1.1-4.02,1-7.98-0.07-11.96
			c-1.06-3.93-3.93-6.32-7.6-6.34c-3.94-0.02-7.19,2.43-8.09,6.44C366.17,464.45,366.25,466.52,366.09,468.53z"/>
		<path class="st3" d="M258.42,453.34c4.3-5.77,18.81-9.13,26.29-4.97c4.92,2.74,7.87,6.96,8.19,12.32
			c0.49,8.25,0.17,16.55,0.2,24.82c0,1.22,0,2.44,0,4.08c-4.42-0.17-8.92,1.82-11.05-4.1c-3.41,1.71-6.11,4.22-9.77,4.73
			c-5,0.69-9.75,0.36-13.47-3.47c-5.1-5.26-3.63-13.5,3.11-17.55c4.22-2.53,8.96-3.46,13.81-3.93c1.53-0.15,3.12,0.24,4.57-0.47
			c0.72-6.65-1.75-9.09-8.07-8.13c-1.27,0.19-2.4,0.61-3.54,1.13C262.39,460.62,261.03,460.03,258.42,453.34z M280.48,473.11
			c-3.31-0.99-6.19,0.01-8.94,0.9c-2.33,0.75-4.2,2.52-3.35,5.32c0.76,2.53,3.09,2.85,5.36,2.69
			C278.74,481.65,281,478.8,280.48,473.11z"/>
		<path class="st2" d="M150.07,453.19c-1.87-1.01-4.05,0.21-6.04-0.94c-0.41-2.23-0.29-4.52-0.04-7.15
			c8.24-0.76,10.37-6.76,11.34-13.71c2.61,0,5.05,0,7.92,0c0,4.14,0,8.13,0,12.31c4.31,1,8.39-0.02,12.43,0.71
			c0.45,2.73,0.4,5.32,0.01,8.25c-3.96,0-7.82,0-12.08,0c0,8.07-0.16,15.82,0.08,23.55c0.09,3.1,2.73,3.75,5.42,3.95
			c2.34,0.17,4.48-1.32,7.07-0.78c0.75,2.17,1.56,4.33,1.85,6.87c-5.1,2.59-10.47,3.75-16.16,3.35c-7.26-0.5-11.15-4.37-11.36-11.64
			c-0.19-6.72-0.04-13.44-0.1-20.16C150.39,456.26,150.77,454.68,150.07,453.19z"/>
		<path class="st3" d="M249.5,479.58c2.41,1.9,3.08,4.62,5.06,6.98c-5.46,3.86-11.09,5.14-17.24,2.99
			c-4.87-1.7-7.05-5.76-7.07-12.44c-0.02-6.84,0-13.68,0-20.24c-1.68-1.43-3.43-0.42-5.18-1.43c-1.38-1.72-1.29-3.95-0.64-6.55
			c2.02-0.57,4.07-1.14,6.26-1.76c1.34-2.22,1.52-4.91,2.2-7.42c1.23-4.51,1.11-4.55,5.9-4.55c1.24,0,2.47,0,3.79,0
			c1.34,4,0.01,7.96,0.95,11.84c3.07,1,6.24-0.02,9.47,0.71c1.17,2.42,0.43,5,0.45,7.73c-3.24,1.25-6.63-0.09-10.22,1.08
			c0,6.93-0.14,13.91,0.06,20.88C243.37,480.45,244.48,480.73,249.5,479.58z"/>
		<path class="st2" d="M138.98,445.32c0,12.42,0,24.28,0,36.01c1.66,1.51,3.96,0.44,5.41,2.17c0.37,1.66,0.23,3.52,0.02,5.75
			c-7.85,0-15.71,0-23.83,0c0-1.91,0-3.87,0-5.92c1.24-1.4,3.19-0.81,5.09-1.61c0-8.97,0-18.11,0-27.36
			c-1.25-1.53-3.66-1.24-5.15-2.76c-0.12-2.18-0.06-4.33,1.15-6.28C127.29,445.32,132.86,445.32,138.98,445.32z"/>
	</g>
	<path class="st3" d="M353.25,446.38c-4.09,0.03-7.87-3.7-7.8-7.7c0.07-4.02,3.39-7.11,7.65-7.12c4.47-0.01,8.06,3.37,7.91,7.43
		C360.88,442.6,356.94,446.35,353.25,446.38z"/>
</g>
</svg>
